<svg xmlns="http://www.w3.org/2000/svg" viewBox="0 0 32 32" role="img" aria-label="Learn2FlyFlorida">
  <defs>
    <linearGradient id="plane" x1="2" y1="30" x2="30" y2="2" gradientUnits="userSpaceOnUse">
      <stop offset="0%" stop-color="#1b3b5a"/>
      <stop offset="100%" stop-color="#d47a28"/>
    </linearGradient>
  </defs>
  <g fill="url(#plane)" transform="rotate(-22 16 16)">
    <path d="M7 17.2c0-.9.6-1.4 1.8-1.6l12.2-2.4c1.2-.2 2 .3 2 1.3v.2c0 .7-.5 1.1-1.5 1.3L9.3 18.5c-1.1.2-2.3 0-2.3-1.3z"/>
    <path d="M9.5 15.8 21.5 13.2l1.2.6-12 3.2z"/>
    <path d="M6.2 17.8 5.2 14.5l1.6-.4.8 3.2z"/>
    <path d="M5 18.8 8.2 18.2l.5 1-3.2.2z"/>
    <circle cx="23.8" cy="14.8" r="1.1"/>
  </g>
</svg>
